# xmcd CD database file
#
# Track frame offsets:
#	150
#	23617
#	46210
#	60270
#	78512
#	93295
#	110505
#	130092
#	140747
#	158070
#	177647
#	196455
#
# Disc length: 2646 seconds
#
# Revision: 0
# Processed by: cddbd v1.5.2PL0 Copyright (c) Steve Scherf et al.
# Submitted via: CDex 1.70beta2
#
DISCID=9a0a540c
DTITLE=DAMIAN KROSS - FIST FUCK THE WORLD
DYEAR=1995
DGENRE=Industrial Metal
TTITLE0=U.S. AGGRESSION
TTITLE1=FIST FUCK THE WORLD
TTITLE2=WHY
TTITLE3=I DON'T CARE
TTITLE4=MY WAY
TTITLE5=DEPRIVED OF INNOCENCE
TTITLE6=I HATE
TTITLE7=JUST TO PISS YOU OFF
TTITLE8=VOICE OF CHAOS
TTITLE9=TIRED OF BEING ALIVE
TTITLE10=EVERYBODY DIES' 
TTITLE11=UNTITLED
EXTD=YEAR: 1995
EXTT0=
EXTT1=
EXTT2=
EXTT3=
EXTT4=
EXTT5=
EXTT6=
EXTT7=
EXTT8=
EXTT9=
EXTT10=
EXTT11=
PLAYORDER=
